<?xml version="1.0" encoding="UTF-8" standalone="no"?>
<!-- Created with Inkscape (http://www.inkscape.org/) -->

<svg
   xmlns:dc="http://purl.org/dc/elements/1.1/"
   xmlns:cc="http://creativecommons.org/ns#"
   xmlns:rdf="http://www.w3.org/1999/02/22-rdf-syntax-ns#"
   xmlns:svg="http://www.w3.org/2000/svg"
   xmlns="http://www.w3.org/2000/svg"
   version="1.1"
   width="552.78223"
   height="296.89386"
   id="svg2">
  <defs
     id="defs4" />
  <metadata
     id="metadata7">
    <rdf:RDF>
      <cc:Work
         rdf:about="">
        <dc:format>image/svg+xml</dc:format>
        <dc:type
           rdf:resource="http://purl.org/dc/dcmitype/StillImage" />
        <dc:title></dc:title>
      </cc:Work>
    </rdf:RDF>
  </metadata>
  <g
     transform="translate(1040.9245,-727.38357)"
     id="layer1">
    <path
       d="m 159.6875,57.15625 c -24.14261,0 -43.91412,18.604843 -45.84375,42.25 l -0.1875,0 0,3.78125 0,9.90625 17.28125,0 0,-9.90625 c 0,-15.88773 12.86227,-28.75 28.75,-28.75 15.88773,0 28.78125,12.86227 28.78125,28.75 l 0,22.03125 C 180.58664,118.8951 170.57899,115.125 159.6875,115.125 c -25.42037,0 -46.03125,20.57964 -46.03125,46 0,25.42037 20.61088,46.03125 46.03125,46.03125 25.38902,0 45.98053,-20.56034 46.03125,-45.9375 6e-5,-0.0313 0,-0.0624 0,-0.0937 l 0,-57.9375 0,-3.8125 -0.1875,0 C 203.58669,75.744757 183.81943,57.15625 159.6875,57.15625 z m 0,75.21875 c 15.88773,0 28.78125,12.86227 28.78125,28.75 l 0,0.0937 c -0.0502,15.84495 -12.92454,28.6875 -28.78125,28.6875 -15.88773,0 -28.75,-12.89352 -28.75,-28.78125 0,-15.88773 12.86227,-28.75 28.75,-28.75 z m 0,18.40625 c -5.71958,0 -10.34375,4.62417 -10.34375,10.34375 0,5.71958 4.62417,10.375 10.34375,10.375 5.71958,0 10.375,-4.65542 10.375,-10.375 0,-5.71958 -4.65542,-10.34375 -10.375,-10.34375 z"
       transform="translate(-1040.9245,727.38357)"
       id="path2989-62"
       style="fill:#9fac08;fill-opacity:1;stroke:none" />
    <g
       id="text2985-9"
       style="font-size:261.2244873px;font-style:normal;font-variant:normal;font-weight:normal;font-stretch:semi-condensed;text-align:start;line-height:125%;letter-spacing:0px;word-spacing:0px;writing-mode:lr-tb;text-anchor:start;fill:#2a6496;fill-opacity:1;stroke:none;font-family:DejaVu Sans;-inkscape-font-specification:DejaVu Sans Semi-Condensed">
      <path
         d="m -934.26633,793.4771 0,21.93878 c -5.95249,-3.65635 -11.94738,-6.37743 -17.98469,-8.16327 -5.95247,-1.87062 -11.98988,-2.806 -18.11224,-2.80612 -13.77558,1.2e-4 -24.44734,4.84706 -32.01534,14.54081 -7.568,9.60895 -11.352,23.12934 -11.352,40.56123 0,17.43203 3.784,30.99494 11.352,40.68877 7.568,9.60887 18.23976,14.41329 32.01534,14.41327 6.12236,2e-5 12.15977,-0.89284 18.11224,-2.67857 6.03731,-1.87073 12.0322,-4.63433 17.98469,-8.29082 l 0,21.68367 c -5.86745,3.06123 -11.98989,5.35715 -18.36734,6.88776 -6.29261,1.53061 -12.96777,2.29591 -20.02551,2.29592 -19.38781,-10e-6 -34.77892,-6.7602 -46.17352,-20.28061 -11.3945,-13.52038 -17.0918,-31.76016 -17.0918,-54.71939 0,-23.29923 5.7398,-41.62404 17.2194,-54.97449 11.5646,-13.3502 27.33838,-20.02536 47.32143,-20.02551 6.54753,1.5e-4 12.92508,0.76545 19.13265,2.29592 6.20738,1.44572 12.20227,3.6566 17.98469,6.63265"
         id="path2993" />
    </g>
    <g
       id="text2985-6"
       style="font-size:261.22000122px;font-style:normal;font-variant:normal;font-weight:normal;font-stretch:semi-condensed;text-align:start;line-height:125%;letter-spacing:0px;word-spacing:0px;writing-mode:lr-tb;text-anchor:start;fill:#2a6496;fill-opacity:1;stroke:none;font-family:DejaVu Sans;-inkscape-font-specification:DejaVu Sans Semi-Condensed">
      <path
         d="m -804.89619,909.42135 0,75.764 -21.30065,0 0,-197.19049 21.30065,0 0,21.6833 c 4.42165,-8.50312 9.99127,-14.79553 16.7089,-18.87723 6.80254,-4.16645 14.92314,-6.24974 24.36182,-6.24989 15.64589,1.5e-4 28.31573,6.88778 38.00956,20.66291 9.77861,13.77539 14.66797,31.8873 14.66811,54.3358 -1.4e-4,22.44865 -4.8895,40.56056 -14.66811,54.3358 -9.69383,13.77528 -22.36367,20.66291 -38.00956,20.66291 -9.43868,0 -17.55928,-2.04078 -24.36182,-6.12234 -6.71763,-4.16659 -12.28725,-10.50151 -16.7089,-19.00477 m 71.80999,-49.8716 c -1.1e-4,-17.26152 -3.18883,-30.78168 -9.56616,-40.56052 -6.37754,-9.86366 -15.13588,-14.79554 -26.27506,-14.79567 -11.22436,1.3e-4 -20.02522,4.93201 -26.40261,14.79567 -6.37748,9.77884 -9.5662,23.299 -9.56616,40.56052 -4e-5,17.26167 3.18868,30.82434 9.56616,40.68808 6.37739,9.77876 15.17825,14.66813 26.40261,14.66811 11.13918,2e-5 19.89752,-4.88935 26.27506,-14.66811 6.37733,-9.86374 9.56605,-23.42641 9.56616,-40.68808"
         id="path3002" />
    </g>
    <g
       id="text2985-62"
       style="font-size:261.22000122px;font-style:normal;font-variant:normal;font-weight:normal;font-stretch:semi-condensed;text-align:start;line-height:125%;letter-spacing:0px;word-spacing:0px;writing-mode:lr-tb;text-anchor:start;fill:#2a6496;fill-opacity:1;stroke:none;font-family:DejaVu Sans;-inkscape-font-specification:DejaVu Sans Semi-Condensed">
      <path
         d="m -614.81572,792.20397 0,22.1935 c -5.95238,-3.40118 -12.15975,-5.95216 -18.62213,-7.65293 -6.37752,-1.70053 -13.01006,-2.55085 -19.89762,-2.55098 -10.45906,1.3e-4 -18.32456,1.78581 -23.59653,5.35705 -5.27206,3.57149 -7.90807,8.92853 -7.90803,16.07115 -4e-5,5.44219 1.87068,9.73633 5.61215,12.88244 3.82642,3.06126 11.39431,5.99488 22.70369,8.80087 l 7.14273,1.78568 c 15.05068,3.57144 25.72225,8.63088 32.01476,15.17831 6.2923,6.46253 9.4385,15.51849 9.43861,27.1679 -1.1e-4,13.2651 -4.71941,23.76661 -14.15792,31.50456 -9.4387,7.73796 -22.40615,11.60694 -38.90239,11.60694 -6.88769,0 -14.07293,-0.76529 -21.55575,-2.29587 -7.4829,-1.44556 -15.3484,-3.6564 -23.59654,-6.63254 l 0,-24.23428 c 7.82298,4.50675 15.51842,7.90805 23.08634,10.20391 7.56786,2.21086 15.05071,3.31628 22.4486,3.31626 9.94874,2e-5 17.60166,-1.87069 22.95879,-5.61214 5.35696,-3.82644 8.03548,-9.18349 8.03557,-16.07116 -9e-5,-6.37739 -1.95583,-11.26676 -5.86724,-14.66811 -3.82655,-3.40125 -12.28728,-6.675 -25.38222,-9.82126 l -7.27029,-1.91323 c -13.09505,-3.06111 -22.57617,-7.73789 -28.44338,-14.03037 -5.78223,-6.37736 -8.67334,-15.09319 -8.67332,-26.14751 -2e-5,-13.43503 4.29412,-23.80899 12.88243,-31.12192 8.58825,-7.31266 20.74789,-10.96905 36.47896,-10.9692 7.82293,1.5e-4 15.17823,0.63789 22.06595,1.91323 6.88754,1.27564 13.22246,3.18887 19.00478,5.7397"
         id="path2999" />
    </g>
    <g
       id="text2985-1"
       style="font-size:261.22000122px;font-style:normal;font-variant:normal;font-weight:normal;font-stretch:semi-condensed;text-align:start;line-height:125%;letter-spacing:0px;word-spacing:0px;writing-mode:lr-tb;text-anchor:start;fill:#2a6496;fill-opacity:1;stroke:none;font-family:DejaVu Sans;-inkscape-font-specification:DejaVu Sans Semi-Condensed">
      <path
         d="m -493.14227,844.62654 0,86.22301 -21.1731,0 0,-85.45772 c -1.1e-4,-13.52007 -2.38102,-23.63894 -7.14273,-30.35662 -4.76192,-6.71745 -11.86213,-10.07623 -21.30066,-10.07636 -11.39443,1.3e-4 -20.40787,4.03917 -27.04035,12.11714 -6.54755,8.0782 -9.8213,19.08991 -9.82126,33.03515 l 0,80.73841 -21.30066,0 0,-198.46598 21.30066,0 0,77.80479 c 5.01687,-8.58816 10.92663,-15.00811 17.72929,-19.25988 6.88757,-4.25148 14.8381,-6.37729 23.85163,-6.37744 14.71053,1.5e-4 25.84978,5.1021 33.41779,15.30586 7.6528,10.119 11.47927,25.04219 11.47939,44.76964"
         id="path2996" />
    </g>
    <path
       d="m -505.36416,939.66482 c -3.57569,-0.006 -7.14564,0.002 -10.72167,0.0312 -13.41644,0.0908 -30.511,-0.0202 -44.24514,0.55552 -26.35191,0.69379 -52.30974,2.332 -74.46127,5.35073 -19.15678,2.78272 -37.90089,5.77638 -57.12012,9.25143 -21.88402,4.31378 -40.51685,8.35464 -59.85493,15.31107 -12.10207,3.93311 -24.33105,10.01401 -35.35794,16.39119 -11.09854,6.78713 -21.34199,11.6258 -31.67585,19.04634 -0.52018,0.4005 -1.03303,0.8189 -1.55386,1.2187 -3.55861,-4.647 -7.36583,-9.08197 -11.87154,-12.87498 -1.3566,-1.17516 -2.66515,-2.41629 -4.07113,-3.53125 -2.64353,-2.09646 -6.76298,-4.80486 -9.57182,-6.59375 -2.80193,-1.7844 -8.76702,-5.39119 -11.59184,-6.9375 -2.21674,-1.21339 -4.49732,-2.34321 -6.74378,-3.5 -16.40532,-7.68633 -33.26972,-14.57671 -51.02896,-18.40625 -4.26304,-0.86988 -14.70532,-3.04882 -19.01933,-3.75 -11.1774,-1.81659 -22.48737,-2.4981 -33.74997,-3.5312 -12.317,-0.8042 -22.65986,-1.69664 -35.01309,-1.4375 -4.929,-0.014 -7.833,-0.0276 -12.7617,-0.0625 l -18.6464,6.09375 c 5.0443,-0.0349 10.0902,-0.0485 15.1346,-0.0625 12.4594,-0.32523 20.89603,0.45159 33.3239,1.21875 11.30917,0.96323 22.67319,1.62913 33.90536,3.34375 5.92835,0.90502 13.14578,2.4159 19.01932,3.59375 17.67479,3.63727 34.44568,10.46401 50.74927,18.0625 2.22291,1.13902 4.45584,2.21322 6.65055,3.40625 3.22646,1.75395 8.32212,4.83814 11.46753,6.84375 2.81801,1.79688 6.74998,4.42022 9.41643,6.5 1.37802,1.07473 2.6733,2.24736 4.00897,3.375 6.46225,5.41543 11.55163,12.08583 16.34668,18.96873 3.85703,0.3835 12.26509,0.1876 17.52756,0.1876 6.48698,-3.8479 10.67233,-6.9689 17.15964,-10.8792 11.84898,-7.82452 21.90094,-13.30514 32.80869,-19.94317 14.96299,-7.89567 30.69825,-13.75068 43.40072,-17.46889 17.10978,-4.64166 36.26315,-8.03813 53.58113,-11.79123 20.06463,-3.47133 27.27055,-4.73577 38.81175,-6.09379 18.15377,-2.03322 34.74428,-3.6704 52.97407,-4.7613 13.28737,-0.86872 26.62329,-1.07659 39.93437,-1.15625 7.07486,-0.032 18.15181,-0.0279 25.22581,0.0937 l 18.33562,-6 c -3.57559,-0.0588 -7.14595,-0.0567 -10.72163,-0.0625 z"
       id="path3201"
       style="fill:#9fac08;fill-opacity:1;stroke:#9fac08;stroke-width:3;stroke-linecap:round;stroke-linejoin:round;stroke-miterlimit:4;stroke-opacity:1;stroke-dasharray:none" />
  </g>
</svg>
